<mxfile host="Electron" modified="2024-08-05T03:09:16.920Z" agent="Mozilla/5.0 (Windows NT 10.0; Win64; x64) AppleWebKit/537.36 (KHTML, like Gecko) draw.io/24.6.4 Chrome/124.0.6367.207 Electron/30.0.6 Safari/537.36" etag="e_dF_N8roXXVn0eHbJ17" version="24.6.4" type="device">
  <diagram name="第 1 页" id="siS1HjC_kkAO4R3JK9Ea">
    <mxGraphModel dx="2049" dy="1206" grid="1" gridSize="10" guides="1" tooltips="1" connect="1" arrows="1" fold="1" page="1" pageScale="1" pageWidth="827" pageHeight="1169" math="0" shadow="0">
      <root>
        <mxCell id="0" />
        <mxCell id="1" parent="0" />
        <mxCell id="CcrQKkY2tlI2P2Oj0vgh-1" value="" style="rounded=1;whiteSpace=wrap;html=1;sketch=1;curveFitting=1;jiggle=2;fillColor=#e3c800;fontColor=#000000;strokeColor=#B09500;" vertex="1" parent="1">
          <mxGeometry x="259" y="369" width="310" height="430" as="geometry" />
        </mxCell>
        <mxCell id="CcrQKkY2tlI2P2Oj0vgh-2" value="&lt;h1&gt;&lt;br&gt;&lt;/h1&gt;" style="rounded=1;whiteSpace=wrap;html=1;labelPosition=center;verticalLabelPosition=top;align=center;verticalAlign=bottom;sketch=1;curveFitting=1;jiggle=2;" vertex="1" parent="1">
          <mxGeometry x="279" y="389" width="270" height="130" as="geometry" />
        </mxCell>
        <mxCell id="CcrQKkY2tlI2P2Oj0vgh-3" value="&lt;h1&gt;&lt;br&gt;&lt;/h1&gt;" style="rounded=1;whiteSpace=wrap;html=1;labelPosition=center;verticalLabelPosition=top;align=center;verticalAlign=bottom;sketch=1;curveFitting=1;jiggle=2;shadow=0;" vertex="1" parent="1">
          <mxGeometry x="279" y="539" width="270" height="240" as="geometry" />
        </mxCell>
        <mxCell id="CcrQKkY2tlI2P2Oj0vgh-5" value="include" style="rounded=1;whiteSpace=wrap;html=1;fillColor=#1ba1e2;fontColor=#ffffff;strokeColor=#006EAF;sketch=1;curveFitting=1;jiggle=2;" vertex="1" parent="1">
          <mxGeometry x="289" y="424" width="110" height="50" as="geometry" />
        </mxCell>
        <mxCell id="CcrQKkY2tlI2P2Oj0vgh-6" value="example" style="rounded=1;whiteSpace=wrap;html=1;fillColor=#6a00ff;fontColor=#ffffff;strokeColor=#3700CC;sketch=1;curveFitting=1;jiggle=2;" vertex="1" parent="1">
          <mxGeometry x="419" y="424" width="120" height="50" as="geometry" />
        </mxCell>
        <mxCell id="CcrQKkY2tlI2P2Oj0vgh-7" value="&lt;div&gt;&lt;br&gt;&lt;/div&gt;" style="rounded=1;whiteSpace=wrap;html=1;fillColor=#e3c800;fontColor=#000000;strokeColor=#B09500;sketch=1;curveFitting=1;jiggle=2;" vertex="1" parent="1">
          <mxGeometry x="294" y="699" width="240" height="60" as="geometry" />
        </mxCell>
        <mxCell id="CcrQKkY2tlI2P2Oj0vgh-8" value="&lt;font face=&quot;Courier New&quot;&gt;OS 系统组件&lt;/font&gt;" style="rounded=1;whiteSpace=wrap;html=1;" vertex="1" parent="1">
          <mxGeometry x="354" y="733" width="120" height="20" as="geometry" />
        </mxCell>
        <mxCell id="CcrQKkY2tlI2P2Oj0vgh-9" value="&lt;font face=&quot;Comic Sans MS&quot;&gt;adapter&lt;/font&gt;" style="text;html=1;align=center;verticalAlign=middle;whiteSpace=wrap;rounded=0;" vertex="1" parent="1">
          <mxGeometry x="384" y="699" width="60" height="30" as="geometry" />
        </mxCell>
        <mxCell id="CcrQKkY2tlI2P2Oj0vgh-10" value="&lt;h3&gt;&lt;font face=&quot;Comic Sans MS&quot;&gt;Core&lt;/font&gt;&lt;/h3&gt;" style="text;html=1;align=center;verticalAlign=middle;whiteSpace=wrap;rounded=0;" vertex="1" parent="1">
          <mxGeometry x="384" y="539" width="60" height="30" as="geometry" />
        </mxCell>
        <mxCell id="CcrQKkY2tlI2P2Oj0vgh-11" value="&lt;h3&gt;&lt;font face=&quot;Comic Sans MS&quot;&gt;API&lt;/font&gt;&lt;/h3&gt;" style="text;html=1;align=center;verticalAlign=middle;whiteSpace=wrap;rounded=1;sketch=1;curveFitting=1;jiggle=2;" vertex="1" parent="1">
          <mxGeometry x="384" y="390" width="60" height="30" as="geometry" />
        </mxCell>
        <mxCell id="CcrQKkY2tlI2P2Oj0vgh-12" value="" style="rounded=1;whiteSpace=wrap;html=1;sketch=1;curveFitting=1;jiggle=2;fillColor=#fa6800;fontColor=#000000;strokeColor=#C73500;" vertex="1" parent="1">
          <mxGeometry x="294" y="563" width="240" height="60" as="geometry" />
        </mxCell>
        <mxCell id="CcrQKkY2tlI2P2Oj0vgh-13" value="widgets" style="text;html=1;align=center;verticalAlign=middle;whiteSpace=wrap;rounded=0;" vertex="1" parent="1">
          <mxGeometry x="384" y="559" width="60" height="30" as="geometry" />
        </mxCell>
        <mxCell id="CcrQKkY2tlI2P2Oj0vgh-17" value="PSting" style="text;html=1;align=center;verticalAlign=middle;whiteSpace=wrap;rounded=0;sketch=1;curveFitting=1;jiggle=2;shadow=1;glass=1;" vertex="1" parent="1">
          <mxGeometry x="294" y="593" width="60" height="30" as="geometry" />
        </mxCell>
        <mxCell id="CcrQKkY2tlI2P2Oj0vgh-18" value="PStructure" style="text;html=1;align=center;verticalAlign=middle;whiteSpace=wrap;rounded=0;" vertex="1" parent="1">
          <mxGeometry x="359" y="593" width="60" height="30" as="geometry" />
        </mxCell>
        <mxCell id="CcrQKkY2tlI2P2Oj0vgh-19" value="PBitset" style="text;html=1;align=center;verticalAlign=middle;whiteSpace=wrap;rounded=0;" vertex="1" parent="1">
          <mxGeometry x="419" y="593" width="60" height="30" as="geometry" />
        </mxCell>
        <mxCell id="CcrQKkY2tlI2P2Oj0vgh-20" value="......" style="text;html=1;align=center;verticalAlign=middle;whiteSpace=wrap;rounded=0;" vertex="1" parent="1">
          <mxGeometry x="474" y="593" width="60" height="30" as="geometry" />
        </mxCell>
        <mxCell id="CcrQKkY2tlI2P2Oj0vgh-21" value="" style="rounded=1;whiteSpace=wrap;html=1;fillColor=#1ba1e2;fontColor=#ffffff;strokeColor=#006EAF;sketch=1;curveFitting=1;jiggle=2;" vertex="1" parent="1">
          <mxGeometry x="294" y="632" width="240" height="54" as="geometry" />
        </mxCell>
        <mxCell id="CcrQKkY2tlI2P2Oj0vgh-22" value="&lt;font face=&quot;Comic Sans MS&quot;&gt;Core&lt;/font&gt;" style="text;html=1;align=center;verticalAlign=middle;whiteSpace=wrap;rounded=0;" vertex="1" parent="1">
          <mxGeometry x="384" y="632" width="60" height="30" as="geometry" />
        </mxCell>
        <mxCell id="CcrQKkY2tlI2P2Oj0vgh-24" value="多系统兼容" style="text;html=1;align=center;verticalAlign=middle;whiteSpace=wrap;rounded=0;" vertex="1" parent="1">
          <mxGeometry x="344" y="656" width="140" height="30" as="geometry" />
        </mxCell>
      </root>
    </mxGraphModel>
  </diagram>
</mxfile>
